<svg width="40" height="40" viewBox="0 0 40 40" fill="none" xmlns="http://www.w3.org/2000/svg">
<path d="M0 20C0 8.95431 8.95431 0 20 0C31.0457 0 40 8.95431 40 20C40 31.0457 31.0457 40 20 40C8.95431 40 0 31.0457 0 20Z" fill="#2C2C2C"/>
<path d="M21.8999 12.4545H23.6612V22.8523C23.6612 23.7803 23.4908 24.5687 23.1499 25.2173C22.8089 25.866 22.3284 26.3584 21.7081 26.6946C21.0878 27.0308 20.3563 27.1989 19.5135 27.1989C18.718 27.1989 18.0102 27.0545 17.3899 26.7656C16.7696 26.4721 16.282 26.0554 15.9268 25.5156C15.5717 24.9759 15.3942 24.3343 15.3942 23.5909H17.1271C17.1271 24.0028 17.2289 24.3627 17.4325 24.6705C17.6409 24.9735 17.925 25.2102 18.2848 25.3807C18.6446 25.5511 19.0542 25.6364 19.5135 25.6364C20.0201 25.6364 20.451 25.5298 20.8061 25.3168C21.1612 25.1037 21.4311 24.7912 21.6158 24.3793C21.8052 23.9626 21.8999 23.4536 21.8999 22.8523V12.4545Z" fill="#F5F5F5"/>
</svg>
