<svg width="17" height="11" viewBox="0 0 17 11" fill="none" xmlns="http://www.w3.org/2000/svg">
<path d="M14.456 1.72707C14.456 0.899239 13.7058 0.221924 12.7889 0.221924H10.2881V1.72707H12.7889V3.72138L9.88793 6.99507H6.95367V3.23221H3.61928C1.77703 3.23221 0.284889 4.57932 0.284889 6.2425V8.50022H1.95208C1.95208 9.74949 3.06911 10.7579 4.45288 10.7579C5.83665 10.7579 6.95367 9.74949 6.95367 8.50022H10.6882L14.456 4.24819V1.72707ZM4.45288 9.25279C3.9944 9.25279 3.61928 8.91413 3.61928 8.50022H5.28647C5.28647 8.91413 4.91136 9.25279 4.45288 9.25279Z" fill="black"/>
<path d="M6.95367 0.974487H2.78567V2.47961H6.95367V0.974487Z" fill="black"/>
<path d="M14.456 6.24249C13.0723 6.24249 11.9552 7.25093 11.9552 8.5002C11.9552 9.74946 13.0723 10.7579 14.456 10.7579C15.8398 10.7579 16.9568 9.74946 16.9568 8.5002C16.9568 7.25093 15.8398 6.24249 14.456 6.24249ZM14.456 9.25277C13.9976 9.25277 13.6224 8.91411 13.6224 8.5002C13.6224 8.08629 13.9976 7.74763 14.456 7.74763C14.9145 7.74763 15.2896 8.08629 15.2896 8.5002C15.2896 8.91411 14.9145 9.25277 14.456 9.25277Z" fill="black"/>
</svg>
